HIERARCHY
ROOT root
{
	OFFSET 0.000000 0.000000 0.000000
	CHANNELS 6 Xposition Yposition Zposition Zrotation Yrotation Xrotation
	JOINT lhip
	{
		OFFSET 0.058581 -0.082280 -0.017664
		CHANNELS 3 Zrotation Yrotation Xrotation
		JOINT lknee
		{
			OFFSET 0.043451 -0.386469 0.008037
			CHANNELS 3 Zrotation Yrotation Xrotation
			JOINT lankle
			{
				OFFSET -0.014790 -0.426874 -0.037428
				CHANNELS 3 Zrotation Yrotation Xrotation
				JOINT ltoe
				{
					OFFSET 0.041054 -0.060286 0.122042
					CHANNELS 3 Zrotation Yrotation Xrotation
					End Site
					{
						OFFSET 0.000000 0.000000 0.000000
					}
				}
			}
		}
	}
	JOINT rhip
	{
		OFFSET -0.060310 -0.090513 -0.013543
		CHANNELS 3 Zrotation Yrotation Xrotation
		JOINT rknee
		{
			OFFSET -0.043257 -0.383688 -0.004843
			CHANNELS 3 Zrotation Yrotation Xrotation
			JOINT rankle
			{
				OFFSET 0.019056 -0.420046 -0.034562
				CHANNELS 3 Zrotation Yrotation Xrotation
				JOINT rtoe
				{
					OFFSET -0.034840 -0.062106 0.130323
					CHANNELS 3 Zrotation Yrotation Xrotation
					End Site
					{
						OFFSET 0.000000 0.000000 0.000000
					}
				}
			}
		}
	}
	JOINT lowerback
	{
		OFFSET 0.004439 0.124404 -0.038385
		CHANNELS 3 Zrotation Yrotation Xrotation
		JOINT upperback
		{
			OFFSET 0.004488 0.137956 0.026820
			CHANNELS 3 Zrotation Yrotation Xrotation
			JOINT chest
			{
				OFFSET -0.002265 0.056032 0.002855
				CHANNELS 3 Zrotation Yrotation Xrotation
				JOINT lowerneck
				{
					OFFSET -0.013390 0.211636 -0.033468
					CHANNELS 3 Zrotation Yrotation Xrotation
					JOINT upperneck
					{
						OFFSET 0.010113 0.088937 0.050410
						CHANNELS 3 Zrotation Yrotation Xrotation
						End Site
						{
							OFFSET 0.000000 0.000000 0.000000
						}
					}
				}
				JOINT lclavicle
				{
					OFFSET 0.071702 0.114000 -0.018898
					CHANNELS 3 Zrotation Yrotation Xrotation
					JOINT lshoulder
					{
						OFFSET 0.122921 0.045205 -0.019046
						CHANNELS 3 Zrotation Yrotation Xrotation
						JOINT lelbow
						{
							OFFSET 0.255332 -0.015649 -0.022946
							CHANNELS 3 Zrotation Yrotation Xrotation
							JOINT lwrist
							{
								OFFSET 0.265709 0.012698 -0.007375
								CHANNELS 3 Zrotation Yrotation Xrotation
								End Site
								{
									OFFSET 0.000000 0.000000 0.000000
								}
							}
						}
					}
				}
				JOINT rclavicle
				{
					OFFSET -0.082954 0.112472 -0.023707
					CHANNELS 3 Zrotation Yrotation Xrotation
					JOINT rshoulder
					{
						OFFSET -0.113228 0.046853 -0.008472
						CHANNELS 3 Zrotation Yrotation Xrotation
						JOINT relbow
						{
							OFFSET -0.260127 -0.014369 -0.031269
							CHANNELS 3 Zrotation Yrotation Xrotation
							JOINT rwrist
							{
								OFFSET -0.269108 0.006794 -0.006027
								CHANNELS 3 Zrotation Yrotation Xrotation
								End Site
								{
									OFFSET 0.000000 0.000000 0.000000
								}
							}
						}
					}
				}
			}
		}
	}
}
MOTION
Frames: 16
Frame Time: 0.033333
-0.456703 1.241189 0.919824 29.425876 1.838969 96.356559 7.647653 0.032360 -53.079700 -10.820898 7.524018 48.400888 4.704045 17.106800 -18.192994 0.000000 -0.000000 0.000000 2.834879 3.646670 -41.691803 5.212220 -7.101988 53.403500 -2.245542 -18.673335 -23.625973 0.000000 -0.000000 0.000000 0.040983 -0.178781 52.970880 -0.294510 -3.490767 -5.081960 1.914637 -0.145819 6.501967 -3.493192 -2.807147 5.569073 5.272177 10.069943 3.239385 -26.496156 -3.773923 -2.963820 -24.889381 4.533275 22.240231 -30.297330 -70.213896 34.327366 17.514544 -8.722197 -24.122154 18.109595 9.499354 -5.782975 25.569623 -1.084849 17.346840 47.219235 65.064290 52.933901 -16.224521 8.605072 -21.839357 
-0.444542 1.218147 0.921013 29.284379 2.157654 96.495451 6.320385 -0.184735 -50.088289 -10.285475 5.695216 34.031462 4.543501 18.266040 -17.101558 0.000000 -0.000000 0.000000 3.680172 3.533415 -39.989495 5.190520 -6.777824 53.589863 -1.710504 -18.958816 -24.764680 0.000000 -0.000000 0.000000 0.261790 -0.469219 51.825394 -0.847606 -3.700558 -4.274241 1.718885 -0.177867 5.538908 -2.868991 -2.365749 2.719032 5.209333 10.151648 6.369524 -27.929162 -5.507621 -2.917256 -28.565770 4.423471 21.113359 -11.224782 -63.390894 15.946930 16.198490 -9.033914 -20.514402 19.263238 10.419048 -5.242373 28.763601 -1.238885 17.682954 33.711206 63.238271 40.375967 -15.395096 8.711811 -20.356489 
-0.431071 1.195274 0.924092 29.287633 2.465396 97.081232 5.107550 -1.066605 -47.575864 -8.552118 3.696485 24.952039 4.835861 19.332189 -15.397580 0.000000 -0.000000 0.000000 4.440317 3.902858 -38.714050 4.956393 -6.352709 53.768857 -1.179812 -19.571783 -25.059115 0.000000 -0.000000 0.000000 0.621826 -0.922243 49.742424 -1.428809 -3.881014 -4.037979 1.478696 -0.291472 5.185898 -2.764851 -2.562832 1.178371 5.626535 10.880561 9.797707 -29.133959 -7.474283 -3.175759 -33.466259 3.599589 19.742076 1.150629 -53.470648 2.816654 17.732543 -7.783739 -18.311083 19.445213 10.997519 -5.277801 32.398645 -0.860510 18.299749 25.521864 58.835856 32.150934 -16.590979 8.154300 -19.635720 
-0.416186 1.172822 0.927617 29.091990 2.323779 97.324187 4.684447 -2.690335 -45.296493 -7.448463 2.544155 21.880566 5.486556 20.320710 -13.492133 0.000000 -0.000000 0.000000 4.172246 4.555049 -38.523436 4.628246 -6.672344 56.295110 -0.046146 -19.612848 -23.218716 0.000000 -0.000000 0.000000 0.475273 -1.226643 48.113132 -1.908332 -3.970007 -5.085130 1.107011 -0.455529 6.071095 -3.258192 -3.246900 2.043134 6.333632 11.747961 10.963687 -28.791168 -7.283323 -4.084228 -38.611236 1.937022 18.059375 6.180574 -46.504906 -5.192885 20.574166 -5.109345 -18.046782 18.288995 10.391894 -5.993743 35.645725 0.071496 18.912041 24.306582 54.764755 29.857255 -16.686582 7.327688 -19.695705 
-0.401234 1.151479 0.930750 28.851846 1.924718 96.889106 4.801253 -4.057414 -43.629667 -7.517767 3.256914 22.753646 6.319058 20.422945 -11.804492 0.000000 -0.000000 0.000000 2.279988 5.405301 -41.289925 3.699420 -8.580684 63.872148 2.027473 -17.758940 -16.109353 0.000000 -0.000000 0.000000 -0.405881 -1.656856 47.382167 -2.014871 -3.745658 -6.270087 0.606101 -0.475601 7.989149 -3.842425 -3.181857 5.236451 6.415880 12.102433 7.933153 -26.142108 -4.988099 -5.763979 -43.558718 1.041464 17.531313 7.872207 -46.843743 -8.128858 19.680535 -3.219143 -18.599102 15.893272 8.526508 -7.194974 38.273747 1.168649 19.267949 26.866460 54.061712 32.404519 -13.491858 7.014874 -19.451985 
-0.387336 1.131190 0.932615 28.989574 1.959596 95.913423 5.560670 -4.258417 -42.522801 -8.339462 4.842943 24.591175 6.504846 19.214650 -9.497928 0.000000 -0.000000 0.000000 -0.276973 5.884013 -46.054678 2.194259 -11.003902 72.972125 2.219287 -15.276629 -5.642522 0.000000 -0.000000 0.000000 -1.197897 -2.384684 47.842710 -1.693394 -2.965477 -6.795380 0.099946 -0.665824 9.801395 -3.491744 -1.759340 10.001930 5.226298 11.028115 2.156545 -21.203941 -1.768037 -7.866698 -48.547825 1.345714 19.245650 8.034018 -51.667174 -4.414376 14.667645 -4.399536 -20.646030 12.506325 5.544082 -8.672738 40.863021 1.859707 20.024267 30.672098 56.936793 39.279709 -9.701481 7.305962 -19.735004 
-0.374774 1.112334 0.931134 29.556961 2.436545 95.135819 5.621833 -3.316878 -41.600632 -8.862909 5.797052 26.529381 7.589220 17.760219 -8.317169 0.000000 -0.000000 0.000000 -1.787172 5.454300 -50.609478 0.830401 -11.898503 78.460477 1.449983 -14.770974 -3.086418 0.000000 -0.000000 0.000000 -1.413214 -3.411281 48.505334 -1.435924 -2.212744 -7.564389 -0.264263 -1.097470 12.474072 -2.922211 -0.361508 14.590956 3.722782 10.092418 -3.209312 -15.429633 2.383049 -10.177901 -53.210711 2.193482 21.189772 5.523512 -58.409720 3.553122 12.634438 -5.251014 -24.254729 8.855513 1.495934 -10.783046 44.097907 2.990356 20.988684 35.185985 60.158409 47.849446 -9.326950 7.282538 -20.860975 
-0.363454 1.096259 0.929499 30.128705 2.812346 94.902909 5.125365 -2.486165 -41.226995 -8.586531 6.087052 28.609362 8.289506 16.610504 -9.021439 0.000000 -0.000000 0.000000 -2.542731 4.722022 -53.859246 0.561551 -11.063028 76.091030 1.733892 -14.430987 -6.008251 0.000000 -0.000000 0.000000 -1.455740 -4.276176 49.466730 -1.284397 -1.997012 -8.461330 -0.481313 -1.371993 14.912334 -3.075583 0.246592 17.412155 3.063143 10.077966 -6.609530 -11.502808 7.083651 -11.539781 -56.193321 2.550542 22.270192 2.135769 -64.636972 10.285370 12.675232 -5.031870 -27.448094 6.925969 -2.938353 -12.160396 46.893844 4.994796 21.226587 38.197675 63.024361 53.503605 -10.087036 6.974233 -21.258918 
-0.353615 1.082687 0.932228 30.275673 3.085637 95.149413 4.817703 -2.211714 -40.787191 -8.122973 6.066110 29.472322 8.039529 16.115170 -9.761809 0.000000 -0.000000 0.000000 -3.152858 4.764124 -54.705297 2.141107 -9.242457 65.491391 2.721379 -13.505882 -9.221686 0.000000 -0.000000 0.000000 -1.302252 -4.451054 51.065578 -1.122265 -1.932133 -8.723471 -0.497466 -1.285372 15.369122 -3.109733 0.226856 17.208976 2.937389 9.566194 -7.269114 -11.143165 10.133963 -11.464312 -56.489742 1.639094 22.743564 1.633676 -68.303115 11.274896 13.589390 -5.017174 -28.708496 7.592685 -5.544068 -12.121302 47.911932 5.977079 20.504255 37.482449 66.722137 52.832946 -11.249717 6.747653 -21.046570 
-0.344827 1.069141 0.936449 30.089561 3.237899 96.006001 4.668353 -2.027612 -40.655376 -7.795395 6.099930 29.721785 7.437934 15.902709 -10.676427 0.000000 -0.000000 0.000000 -3.391220 5.547163 -53.639282 3.647486 -6.129665 51.747379 3.565602 -13.288683 -10.196568 0.000000 -0.000000 0.000000 -0.921257 -4.095485 51.864654 -0.999715 -1.874254 -8.607643 -0.362462 -1.031846 14.552124 -3.111996 -0.177149 15.207059 2.972329 8.946978 -5.887285 -12.879921 10.384731 -10.835805 -55.115509 0.474604 23.141123 3.277178 -68.295182 9.246489 15.553096 -4.437240 -28.544903 9.524061 -5.700077 -11.696244 47.540083 5.669736 19.934428 33.540338 68.976843 47.943189 -13.983521 6.333791 -20.718836 
-0.336947 1.055265 0.939037 30.143874 2.879650 97.279272 4.317825 -1.931844 -41.054665 -7.775199 6.483123 30.062251 7.045210 15.550543 -11.744007 0.000000 -0.000000 0.000000 -3.282807 5.733031 -52.152584 3.399867 -3.133660 41.151204 3.649957 -13.294072 -8.648249 0.000000 -0.000000 0.000000 -0.686403 -3.614428 51.358423 -0.859544 -2.093489 -8.578545 -0.273350 -0.869502 13.562113 -3.119260 -0.711432 12.829985 3.095589 8.652074 -3.585777 -14.331790 9.192263 -10.272760 -53.739810 -0.407048 23.681655 2.989168 -65.161906 9.741664 16.697377 -4.084756 -27.175942 11.258477 -5.029840 -11.316128 47.150741 5.658645 20.071176 29.588597 67.760575 43.746620 -15.843968 6.141744 -19.438879 
-0.330300 1.042486 0.939795 30.669749 2.290046 98.565895 3.832764 -2.109152 -41.903479 -7.922529 6.685411 30.950582 7.248920 15.369965 -12.893772 0.000000 -0.000000 0.000000 -2.864632 5.220066 -51.900989 2.829577 -1.532239 39.062332 2.842618 -13.141090 -6.420150 0.000000 -0.000000 0.000000 -0.575673 -3.423513 50.163213 -0.634219 -2.394328 -8.440908 -0.332737 -0.884781 12.480892 -2.741409 -0.970296 10.280309 2.988430 8.433320 -0.655897 -14.699591 7.958777 -9.707705 -53.063165 -0.815718 24.010894 0.828899 -61.464745 11.740995 15.593474 -4.118972 -26.488507 12.070386 -4.201272 -10.818014 47.354207 6.145925 20.833872 27.265172 64.289881 41.047553 -15.611477 6.065692 -18.714241 
-0.324659 1.031325 0.942400 31.226592 2.409658 99.200173 3.740988 -2.219714 -41.960205 -7.834752 6.133883 31.635396 7.351849 15.656414 -13.799435 0.000000 -0.000000 0.000000 -2.987727 5.997286 -51.604949 2.077342 -2.122561 39.549644 2.012307 -13.857606 -5.689338 0.000000 -0.000000 0.000000 -0.211424 -3.826864 49.836968 -0.530181 -2.281917 -8.366503 -0.371660 -0.876797 11.464854 -2.498476 -1.053332 8.511845 2.619721 8.451249 1.203905 -14.651354 7.255730 -9.004083 -52.794261 -0.549679 24.163850 -0.800152 -59.597110 13.421897 12.631274 -4.223035 -26.765220 12.009626 -3.170614 -10.393429 47.805508 6.533846 21.825944 26.304496 61.133362 39.835919 -13.009302 5.800612 -19.571110 
-0.319963 1.021199 0.947601 31.296010 2.700396 99.594515 4.017782 -2.438332 -41.256679 -7.651017 5.855014 31.389516 7.304926 16.029879 -14.285164 0.000000 -0.000000 0.000000 -2.971213 6.807405 -50.908643 2.049414 -2.204576 38.469886 1.361020 -14.713138 -3.963113 0.000000 -0.000000 0.000000 -0.143164 -3.906513 49.763143 -0.330809 -1.982359 -8.144184 -0.212949 -0.738817 10.885324 -2.334367 -0.923676 8.280028 2.159812 8.362337 1.168334 -14.533864 7.016813 -8.677139 -52.773919 -0.077186 24.699290 -2.293989 -59.562257 15.151929 10.888683 -4.842835 -27.275506 11.513285 -2.780828 -10.463017 48.503095 6.553631 22.792497 26.374355 59.676724 40.408279 -10.910414 5.675925 -20.649656 
-0.316416 1.011401 0.952128 31.278205 2.339280 100.400538 3.960000 -2.908407 -41.004340 -7.565882 5.958032 30.883569 7.199661 16.218501 -14.496114 0.000000 -0.000000 0.000000 -2.435562 6.442836 -50.681828 1.573869 -1.508618 38.043123 1.048031 -14.601296 -3.435057 0.000000 -0.000000 0.000000 -0.580440 -3.256585 48.622297 -0.023465 -2.051867 -7.852065 0.024452 -0.798481 11.265730 -1.876607 -0.675978 9.443757 2.190150 8.599790 0.438897 -13.882005 7.462831 -9.000848 -53.168376 0.195954 25.489069 -4.937627 -60.355541 18.582407 10.537093 -5.254919 -27.874461 11.095825 -3.400194 -11.002170 49.549231 6.403098 23.720843 27.112179 59.471075 42.432553 -10.995787 5.632525 -20.382799 
-0.313009 1.002387 0.956463 31.331493 2.208034 101.253911 3.891032 -3.185102 -40.735753 -7.406613 5.576544 30.085891 7.099969 16.417741 -14.556134 0.000000 -0.000000 0.000000 -2.443983 5.959732 -50.368860 1.615959 -1.839013 37.317606 1.289583 -14.171086 -3.310979 0.000000 -0.000000 0.000000 -0.704508 -2.862183 47.457562 0.208380 -2.077358 -7.780148 0.152749 -0.918604 12.103385 -1.669906 -0.452996 11.192514 2.155500 8.871190 -0.445091 -13.225316 8.395543 -9.275480 -53.851249 0.175850 25.967360 -7.588496 -61.676223 21.975233 10.395386 -5.560396 -28.768435 10.528380 -4.552656 -11.578128 50.933684 6.132999 24.086027 28.394897 60.300023 44.684087 -11.718194 5.579425 -20.199303 
